<?xml version="1.0" encoding="utf-8"?>
<svg xmlns="http://www.w3.org/2000/svg" xmlns:svg="http://www.w3.org/2000/svg" version="1.1" viewBox="0 0 1400 440">
	<title>The titlepage for the Standard Ebooks edition of The Worm Ouroboros, by E. R. Eddison</title>
	<g aria-label="THE">
		<path d="m 605.10526,68.245613 h 18.33918 V 130 h 17.59065 V 68.245613 h 18.33918 V 52.807016 h -54.26901 z"/>
		<path d="M 688.29971,99.029239 H 713.1886 V 130 h 17.59064 V 52.807016 H 713.1886 V 83.590642 H 688.29971 V 52.807016 H 670.70906 V 130 h 17.59065 z"/>
		<path d="M 791.14474,52.807016 H 746.981 V 130 h 44.16374 v -15.4386 h -26.5731 V 99.029239 h 25.45029 V 83.590642 H 764.57164 V 68.245613 h 26.5731 z"/>
	</g>
	<g aria-label="WORM OUROBOROS">
		<path d="m 221.19444,230 h 19.46199 l 21.9883,-77.19298 h -19.46199 l -13.19298,52.95906 h -0.46784 l -14.03509,-52.95906 h -13.28655 l -14.03508,52.95906 h -0.46784 L 174.50438,152.80702 H 154.94882 L 176.93713,230 h 19.55555 l 12.35088,-43.32164 z"/>
		<path d="m 265.47806,191.35672 c 0,22.54971 16.09357,40.04679 38.92398,40.04679 22.17544,0 38.83041,-17.49708 38.83041,-40.04679 0,-22.5497 -17.40351,-39.95321 -38.83041,-39.95321 -21.23977,0 -38.92398,17.40351 -38.92398,39.95321 z m 18.99416,0 c 0,-11.50877 6.36257,-23.01754 19.92982,-23.01754 13.66082,0 19.83626,11.50877 19.83626,23.01754 0,11.50878 -5.80117,23.01755 -19.83626,23.01755 -14.40936,0 -19.92982,-11.50877 -19.92982,-23.01755 z"/>
		<path d="M 355.99414,152.80702 V 230 h 17.59064 V 199.49708 L 397.16373,230 h 22.36257 l -26.5731,-31.90643 c 9.45029,-2.99416 15.81287,-10.76024 15.81287,-22.36258 0,-15.15789 -10.8538,-22.92397 -25.16959,-22.92397 z m 17.59064,34.24561 V 166.8421 h 2.05848 c 6.64327,0 14.59649,0.46784 14.59649,10.10527 0,9.63742 -7.95322,10.10526 -14.59649,10.10526 z"/>
		<path d="m 491.87573,230 h 17.59064 l -6.92397,-77.19298 h -18.71346 l -17.1228,44.53801 -17.12281,-44.53801 H 430.86988 L 423.9459,230 h 17.59065 l 3.64912,-45.75439 h 0.46784 l 15.81286,45.28655 h 10.47953 l 15.81287,-45.28655 h 0.46784 z"/>
		<path d="m 548.63597,191.35672 c 0,22.54971 16.09357,40.04679 38.92398,40.04679 22.17544,0 38.83041,-17.49708 38.83041,-40.04679 0,-22.5497 -17.40351,-39.95321 -38.83041,-39.95321 -21.23977,0 -38.92398,17.40351 -38.92398,39.95321 z m 18.99415,0 c 0,-11.50877 6.36257,-23.01754 19.92983,-23.01754 13.66082,0 19.83625,11.50877 19.83625,23.01754 0,11.50878 -5.80117,23.01755 -19.83625,23.01755 -14.40936,0 -19.92983,-11.50877 -19.92983,-23.01755 z"/>
		<path d="m 698.47367,152.80702 h -17.59064 v 44.63158 c 0,12.91228 -3.92983,16.65497 -12.53801,16.65497 -8.60819,0 -12.53801,-3.74269 -12.53801,-16.65497 v -44.63158 h -17.59065 v 49.77777 c 0,19.08772 10.47953,28.81872 30.12866,28.81872 19.64912,0 30.12865,-9.731 30.12865,-28.81872 z"/>
		<path d="M 713.77923,152.80702 V 230 h 17.59065 V 199.49708 L 754.94882,230 h 22.36258 l -26.5731,-31.90643 c 9.45029,-2.99416 15.81286,-10.76024 15.81286,-22.36258 0,-15.15789 -10.8538,-22.92397 -25.16959,-22.92397 z m 17.59065,34.24561 V 166.8421 h 2.05847 c 6.64328,0 14.5965,0.46784 14.5965,10.10527 0,9.63742 -7.95322,10.10526 -14.5965,10.10526 z"/>
		<path d="m 782.38597,191.35672 c 0,22.54971 16.09357,40.04679 38.92398,40.04679 22.17544,0 38.83041,-17.49708 38.83041,-40.04679 0,-22.5497 -17.40351,-39.95321 -38.83041,-39.95321 -21.23977,0 -38.92398,17.40351 -38.92398,39.95321 z m 18.99415,0 c 0,-11.50877 6.36257,-23.01754 19.92983,-23.01754 13.66082,0 19.83625,11.50877 19.83625,23.01754 0,11.50878 -5.80117,23.01755 -19.83625,23.01755 -14.40936,0 -19.92983,-11.50877 -19.92983,-23.01755 z"/>
		<path d="M 872.90203,152.80702 V 230 h 29.28655 c 16,0 25.26316,-8.79532 25.26316,-21.52047 0,-12.44444 -6.83041,-17.77778 -16.46783,-19.46199 6.5497,-3.36842 9.63742,-9.45029 9.63742,-16.5614 0,-14.69006 -10.47953,-19.64912 -23.76608,-19.64912 z m 17.59065,30.22222 v -16.65497 h 1.40351 c 7.67251,0 11.6959,2.33918 11.6959,7.85965 0,6.45614 -4.11696,8.79532 -11.6959,8.79532 z m 0,33.40351 v -18.24562 h 5.52047 c 8.32748,0 12.91228,2.52632 12.91228,9.63743 0,6.08187 -4.5848,8.60819 -12.91228,8.60819 z"/>
		<path d="m 936.75731,191.35672 c 0,22.54971 16.09356,40.04679 38.92397,40.04679 22.17544,0 38.83042,-17.49708 38.83042,-40.04679 0,-22.5497 -17.40352,-39.95321 -38.83042,-39.95321 -21.23976,0 -38.92397,17.40351 -38.92397,39.95321 z m 18.99415,0 c 0,-11.50877 6.36257,-23.01754 19.92982,-23.01754 13.66082,0 19.83626,11.50877 19.83626,23.01754 0,11.50878 -5.80117,23.01755 -19.83626,23.01755 -14.40935,0 -19.92982,-11.50877 -19.92982,-23.01755 z"/>
		<path d="M 1027.2734,152.80702 V 230 h 17.5906 V 199.49708 L 1068.443,230 h 22.3625 l -26.5731,-31.90643 c 9.4503,-2.99416 15.8129,-10.76024 15.8129,-22.36258 0,-15.15789 -10.8538,-22.92397 -25.1696,-22.92397 z m 17.5906,34.24561 V 166.8421 h 2.0585 c 6.6433,0 14.5965,0.46784 14.5965,10.10527 0,9.63742 -7.9532,10.10526 -14.5965,10.10526 z"/>
		<path d="m 1095.8801,191.35672 c 0,22.54971 16.0936,40.04679 38.924,40.04679 22.1754,0 38.8304,-17.49708 38.8304,-40.04679 0,-22.5497 -17.4035,-39.95321 -38.8304,-39.95321 -21.2398,0 -38.924,17.40351 -38.924,39.95321 z m 18.9942,0 c 0,-11.50877 6.3625,-23.01754 19.9298,-23.01754 13.6608,0 19.8362,11.50877 19.8362,23.01754 0,11.50878 -5.8011,23.01755 -19.8362,23.01755 -14.4094,0 -19.9298,-11.50877 -19.9298,-23.01755 z"/>
		<path d="m 1214.8406,151.40351 c -12.4444,0 -25.1696,9.16959 -25.1696,23.57895 0,8.04678 5.4269,15.25146 14.6901,19.83625 9.1696,4.5848 17.4035,7.11111 17.4035,12.72515 0,7.20468 -7.2982,7.57895 -11.1345,7.57895 -8.6082,0 -18.9006,-8.70176 -18.9006,-8.70176 l -8.7953,14.78363 c 0,0 10.9474,10.19883 29.0058,10.19883 15.0644,0 29.0995,-6.45614 29.0995,-24.88889 0,-10.10526 -9.4503,-17.40351 -18.0585,-21.05263 -8.7954,-3.74269 -16.0936,-6.83041 -16.0936,-11.13451 0,-4.21052 3.1813,-6.92397 9.1696,-6.92397 7.9532,0 15.6257,5.33333 15.6257,5.33333 l 7.1111,-14.03509 c 0,0 -9.9181,-7.29824 -23.9532,-7.29824 z"/>
	</g>
	<g aria-label="E. R. EDDISON">
		<path d="M 452.46766,332.10526 H 419.34485 V 390 h 33.12281 v -11.57895 h -19.92983 v -11.64912 h 19.08772 v -11.57895 h -19.08772 v -11.50877 h 19.92983 z"/>
		<path d="m 473.05209,374.98246 c -4.42106,0 -8,3.57894 -8,8.07017 0,4.42105 3.57894,8 8,8 4.49122,0 8.07017,-3.57895 8.07017,-8 0,-4.49123 -3.57895,-8.07017 -8.07017,-8.07017 z"/>
		<path d="M 518.77467,332.10526 V 390 h 13.19299 V 367.12281 L 549.65187,390 h 16.77193 l -19.92983,-23.92982 c 7.08772,-2.24562 11.85965,-8.07018 11.85965,-16.77193 0,-11.36842 -8.14035,-17.19299 -18.87719,-17.19299 z m 13.19299,25.68421 v -15.15789 h 1.54386 c 4.98245,0 10.94736,0.35088 10.94736,7.57895 0,7.22807 -5.96491,7.57894 -10.94736,7.57894 z"/>
		<path d="m 582.0762,374.98246 c -4.42105,0 -8,3.57894 -8,8.07017 0,4.42105 3.57895,8 8,8 4.49123,0 8.07018,-3.57895 8.07018,-8 0,-4.49123 -3.57895,-8.07017 -8.07018,-8.07017 z"/>
		<path d="M 660.9216,332.10526 H 627.7988 V 390 h 33.1228 v -11.57895 h -19.92982 v -11.64912 h 19.08772 v -11.57895 h -19.08772 v -11.50877 h 19.92982 z"/>
		<path d="M 673.50603,332.10526 V 390 h 16.77193 c 15.92982,0 29.19298,-12.07018 29.19298,-28.98246 0,-16.8421 -13.33333,-28.91228 -29.19298,-28.91228 z m 13.19298,46.10527 v -34.31579 h 2.03509 c 9.82456,0 16.49123,7.50877 16.49123,17.19298 -0.0702,9.68421 -6.73685,17.12281 -16.49123,17.12281 z"/>
		<path d="M 730.31525,332.10526 V 390 h 16.77193 c 15.92982,0 29.19298,-12.07018 29.19298,-28.98246 0,-16.8421 -13.33333,-28.91228 -29.19298,-28.91228 z m 13.19298,46.10527 v -34.31579 h 2.03509 c 9.82456,0 16.49122,7.50877 16.49122,17.19298 -0.0702,9.68421 -6.73684,17.12281 -16.49122,17.12281 z"/>
		<path d="M 800.31743,332.10526 H 787.12445 V 390 h 13.19298 z"/>
		<path d="m 833.74288,331.05263 c -9.33333,0 -18.87719,6.8772 -18.87719,17.68421 0,6.03509 4.07017,11.4386 11.01754,14.8772 6.87719,3.43859 13.05263,5.33333 13.05263,9.54385 0,5.40351 -5.47368,5.68422 -8.35088,5.68422 -6.45614,0 -14.17543,-6.52632 -14.17543,-6.52632 l -6.5965,11.08772 c 0,0 8.21053,7.64912 21.75439,7.64912 11.29825,0 21.82456,-4.8421 21.82456,-18.66666 0,-7.57895 -7.08772,-13.05264 -13.54386,-15.78948 -6.59649,-2.80702 -12.07017,-5.12281 -12.07017,-8.35088 0,-3.15789 2.38596,-5.19298 6.87719,-5.19298 5.96491,0 11.7193,4 11.7193,4 l 5.33333,-10.52631 c 0,0 -7.4386,-5.47369 -17.96491,-5.47369 z"/>
		<path d="m 861.96216,361.01754 c 0,16.91228 12.07018,30.03509 29.19299,30.03509 16.63157,0 29.1228,-13.12281 29.1228,-30.03509 0,-16.91228 -13.05263,-29.96491 -29.1228,-29.96491 -15.92983,0 -29.19299,13.05263 -29.19299,29.96491 z m 14.24562,0 c 0,-8.63157 4.77193,-17.26315 14.94737,-17.26315 10.24561,0 14.87719,8.63158 14.87719,17.26315 0,8.63158 -4.35088,17.26316 -14.87719,17.26316 -10.80702,0 -14.94737,-8.63158 -14.94737,-17.26316 z"/>
		<path d="m 944.29223,354.07018 h 0.14035 L 967.45012,390 h 13.19298 v -57.89474 h -13.19298 v 35.92983 h -0.14035 L 944.29223,332.10526 H 931.09924 V 390 h 13.19299 z"/>
	</g>
</svg>
